<svg xmlns="http://www.w3.org/2000/svg" width="26.459" height="26.459" viewBox="0 0 26.459 26.459"><defs><style>.a{fill:#c31b1a;}.b{fill:#fff;}</style></defs><g transform="translate(-1069.657 -5539)"><path class="a" d="M1071.6,5539h22.58a1.939,1.939,0,0,1,1.939,1.939v22.58a1.939,1.939,0,0,1-1.939,1.939H1071.6a1.939,1.939,0,0,1-1.939-1.939v-22.58A1.939,1.939,0,0,1,1071.6,5539Z"/><path class="b" d="M1086.645,5552.6l-7.266,3.466a.291.291,0,0,1-.417-.264v-7.147a.292.292,0,0,1,.423-.261l7.267,3.683a.291.291,0,0,1-.007.523Z"/></g></svg>