<svg xmlns="http://www.w3.org/2000/svg" width="26.459" height="26.459" viewBox="0 0 26.459 26.459"><defs><style>.a{fill:#dd5144;}.b{fill:#fff;}</style></defs><g transform="translate(-1176.056 -5539)"><path class="a" d="M1178,5539h22.58a1.939,1.939,0,0,1,1.939,1.939v22.58a1.939,1.939,0,0,1-1.939,1.939H1178a1.939,1.939,0,0,1-1.939-1.939v-22.58A1.939,1.939,0,0,1,1178,5539Z"/><path class="b" d="M1186.63,5553.4h2.782a3.536,3.536,0,1,1-.96-3.793.382.382,0,0,0,.521,0l1.022-.961a.383.383,0,0,0,0-.556,5.673,5.673,0,0,0-3.8-1.559,5.7,5.7,0,1,0,5.574,6.016c.005-.038.008-1.308.008-1.308h-5.144a.382.382,0,0,0-.382.382v1.4a.382.382,0,0,0,.382.382Z"/><path class="b" d="M1196.488,5551.369V5550a.335.335,0,0,0-.335-.334H1195a.335.335,0,0,0-.335.334v1.367H1193.3a.335.335,0,0,0-.335.335v1.15a.335.335,0,0,0,.335.335h1.366v1.367a.335.335,0,0,0,.335.334h1.15a.335.335,0,0,0,.335-.334v-1.367h1.367a.335.335,0,0,0,.334-.335v-1.15a.335.335,0,0,0-.334-.335Z"/></g></svg>