<svg xmlns="http://www.w3.org/2000/svg" width="26.459" height="26.459" viewBox="0 0 26.459 26.459"><defs><style>.a{fill:#34aaf3;}.b{fill:#fff;}</style></defs><g transform="translate(-1229.255 -5539)"><path class="a" d="M1231.195,5539h22.58a1.939,1.939,0,0,1,1.939,1.939v22.58a1.939,1.939,0,0,1-1.939,1.939h-22.58a1.939,1.939,0,0,1-1.939-1.939v-22.58A1.939,1.939,0,0,1,1231.195,5539Z"/><path class="b" d="M1249.191,5547.808a5.48,5.48,0,0,1-.955.322,2.969,2.969,0,0,0,.786-1.252h0a.156.156,0,0,0-.229-.181h0a5.513,5.513,0,0,1-1.46.6.375.375,0,0,1-.091.011.389.389,0,0,1-.256-.1,2.984,2.984,0,0,0-1.976-.746,3.2,3.2,0,0,0-.946.146,2.9,2.9,0,0,0-1.95,2.085,3.175,3.175,0,0,0-.071,1.1.1.1,0,0,1-.027.084.109.109,0,0,1-.082.037h-.011a7.83,7.83,0,0,1-5.382-2.875h0a.156.156,0,0,0-.256.02h0a2.991,2.991,0,0,0,.486,3.63,2.636,2.636,0,0,1-.681-.264h0a.156.156,0,0,0-.232.135h0a2.99,2.99,0,0,0,1.744,2.755h-.064a2.658,2.658,0,0,1-.5-.048h0a.157.157,0,0,0-.178.2h0a2.992,2.992,0,0,0,2.364,2.036,5.5,5.5,0,0,1-3.086.938h-.346a.229.229,0,0,0-.223.173.235.235,0,0,0,.113.261,8.193,8.193,0,0,0,4.119,1.111,8.3,8.3,0,0,0,3.52-.747,7.751,7.751,0,0,0,2.575-1.93,8.423,8.423,0,0,0,1.577-2.641,8.335,8.335,0,0,0,.537-2.891v-.045a.506.506,0,0,1,.19-.4,5.907,5.907,0,0,0,1.187-1.3h0a.156.156,0,0,0-.193-.23Z"/></g></svg>