<svg xmlns="http://www.w3.org/2000/svg" width="26.459" height="26.459" viewBox="0 0 26.459 26.459"><defs><style>.a{fill:#3b5998;}.b{fill:#fff;}</style></defs><g transform="translate(-1016.458 -5539)"><path class="a" d="M1018.4,5539h22.58a1.939,1.939,0,0,1,1.939,1.939v22.58a1.939,1.939,0,0,1-1.939,1.939H1018.4a1.939,1.939,0,0,1-1.939-1.939v-22.58A1.939,1.939,0,0,1,1018.4,5539Z"/><path class="b" d="M1033.5,5565.459l.016-9.131h3.153a.559.559,0,0,0,.556-.493l.349-2.943a.56.56,0,0,0-.556-.626H1033.5V5549.8c0-1.117.31-1.877,1.911-1.877h1.483a.559.559,0,0,0,.559-.56v-2.481a.559.559,0,0,0-.559-.56h-2.416c-2.944,0-4.96,1.8-4.96,5.1v2.844h-2.368a.559.559,0,0,0-.559.562l.011,2.943a.559.559,0,0,0,.56.557h2.372l-.016,9.131Z"/></g></svg>