<svg xmlns="http://www.w3.org/2000/svg" width="34.478" height="47.016" viewBox="0 0 34.478 47.016"><defs><style>.a{fill:#212121;}</style></defs><g transform="translate(-207.522 -2467.843)"><path class="a" d="M238.082,2480.381H222.41a3.923,3.923,0,0,0-3.918,3.918v9.4a3.924,3.924,0,0,0,3.918,3.918h2.6l2.219,3.549a.782.782,0,0,0,1.332,0l2.216-3.549h7.3A3.923,3.923,0,0,0,242,2493.7v-9.4A3.922,3.922,0,0,0,238.082,2480.381Zm2.351,13.321a2.352,2.352,0,0,1-2.351,2.351h-7.738a.783.783,0,0,0-.664.368l-1.785,2.854-1.784-2.854a.783.783,0,0,0-.664-.368H222.41a2.351,2.351,0,0,1-2.35-2.351v-9.4a2.35,2.35,0,0,1,2.35-2.351h15.672a2.351,2.351,0,0,1,2.351,2.351Z"/><path class="a" d="M236.515,2485.866H223.978a.784.784,0,1,0,0,1.567h12.537a.784.784,0,0,0,0-1.567Z"/><path class="a" d="M236.515,2489.784H223.978a.784.784,0,1,0,0,1.567h12.537a.784.784,0,0,0,0-1.567Z"/><path class="a" d="M233.381,2499.971a.783.783,0,0,0-.784.783v3.918H209.089v-28.209H232.6v1.567a.784.784,0,1,0,1.567,0v-5.485a4.706,4.706,0,0,0-4.7-4.7H212.224a4.707,4.707,0,0,0-4.7,4.7v37.612a4.707,4.707,0,0,0,4.7,4.7h17.239a4.706,4.706,0,0,0,4.7-4.7v-9.4A.783.783,0,0,0,233.381,2499.971Zm-21.157-30.56h17.239a3.134,3.134,0,0,1,3.134,3.134v2.351H209.089v-2.351A3.135,3.135,0,0,1,212.224,2469.411Zm17.239,43.88H212.224a3.135,3.135,0,0,1-3.135-3.134v-3.918H232.6v3.918A3.134,3.134,0,0,1,229.463,2513.291Z"/><path class="a" d="M218.1,2472.937h5.485a.783.783,0,0,0,0-1.567H218.1a.783.783,0,1,0,0,1.567Z"/><path class="a" d="M220.843,2507.023a2.743,2.743,0,1,0,2.743,2.742A2.742,2.742,0,0,0,220.843,2507.023Zm0,3.918a1.175,1.175,0,1,1,1.176-1.176h0A1.177,1.177,0,0,1,220.843,2510.941Z"/></g></svg>