<svg xmlns="http://www.w3.org/2000/svg" xmlns:xlink="http://www.w3.org/1999/xlink" width="26.459" height="26.459" viewBox="0 0 26.459 26.459"><defs><style>.a{fill:url(#a);}.b{fill:#fff;}</style><radialGradient id="a" cx="0.043" cy="1.064" r="1.327" gradientTransform="translate(0)" gradientUnits="objectBoundingBox"><stop offset="0" stop-color="#f7e000"/><stop offset="0.045" stop-color="#f6c700"/><stop offset="0.1" stop-color="#f6af00"/><stop offset="0.135" stop-color="#f6a700"/><stop offset="0.317" stop-color="#e66149"/><stop offset="0.355" stop-color="#e3534d"/><stop offset="0.427" stop-color="#de3159"/><stop offset="0.505" stop-color="#d70568"/><stop offset="0.661" stop-color="#bc0090"/><stop offset="0.756" stop-color="#a113a5"/><stop offset="0.871" stop-color="#8528bc"/><stop offset="1" stop-color="#5456da"/></radialGradient></defs><g transform="translate(-1122.857 -5539)"><path class="a" d="M1124.8,5539h22.58a1.939,1.939,0,0,1,1.939,1.939v22.58a1.939,1.939,0,0,1-1.939,1.939H1124.8a1.939,1.939,0,0,1-1.939-1.939v-22.58A1.939,1.939,0,0,1,1124.8,5539Z"/><path class="b" d="M1139.457,5543.891h-6.741a4.974,4.974,0,0,0-4.969,4.968v6.741a4.974,4.974,0,0,0,4.969,4.968h6.741a4.974,4.974,0,0,0,4.968-4.968v-6.741A4.973,4.973,0,0,0,1139.457,5543.891Zm3.29,11.709a3.291,3.291,0,0,1-3.29,3.291h-6.741a3.291,3.291,0,0,1-3.291-3.291v-6.741a3.291,3.291,0,0,1,3.291-3.291h6.741a3.291,3.291,0,0,1,3.29,3.291Z"/><path class="b" d="M1136.086,5547.916a4.313,4.313,0,1,0,4.314,4.313A4.318,4.318,0,0,0,1136.086,5547.916Zm0,6.949a2.635,2.635,0,1,1,2.636-2.635A2.636,2.636,0,0,1,1136.086,5554.865Z"/><path class="b" d="M1140.408,5546.915a1.033,1.033,0,1,0,1.033,1.033A1.034,1.034,0,0,0,1140.408,5546.915Z"/></g></svg>