<svg xmlns="http://www.w3.org/2000/svg" width="21.004" height="2.455" viewBox="0 0 21.004 2.455"><defs><style>.a{fill:#b4b4b4;stroke:#b4b4b4;stroke-miterlimit:10;stroke-width:0.5px;}</style></defs><path class="a" d="M170.79,3884.458c1.58.008,3.161.006,4.741.006,1.08,0,2.161-.005,3.241,0a1,1,0,0,0,.9-.423,2.739,2.739,0,0,0,.176-.351v-.4a1.137,1.137,0,0,0-1.255-.78c-2.6.018-5.191,0-7.786.009l-2.4,0c-1.561-.008-3.122-.007-4.683-.006-1.154,0-2.308,0-3.462.012a.88.88,0,0,0-.824.57.928.928,0,0,0,.142,1.013,1.033,1.033,0,0,0,.873.354c2.642,0,5.284,0,7.926-.005C168.588,3884.458,170.613,3884.457,170.79,3884.458Z" transform="translate(-159.092 -3882.259)"/></svg>