<svg xmlns="http://www.w3.org/2000/svg" width="26.459" height="26.459" viewBox="0 0 26.459 26.459"><defs><style>.a{fill:#1ca811;}.b{fill:#fff;}</style></defs><g transform="translate(-963.258 -5539)"><path class="a" d="M965.2,5539h22.581a1.939,1.939,0,0,1,1.939,1.939v22.58a1.939,1.939,0,0,1-1.939,1.939H965.2a1.939,1.939,0,0,1-1.939-1.939v-22.58A1.939,1.939,0,0,1,965.2,5539Z"/><path class="b" d="M976.087,5543.977a8.2,8.2,0,0,0-6.9,11.908l-.87,4.223a.319.319,0,0,0,.386.375l4.139-.981a8.2,8.2,0,1,0,3.248-15.525Zm4.939,12.723a6.422,6.422,0,0,1-7.394,1.211l-.576-.287-2.538.6.534-2.593-.284-.556a6.426,6.426,0,0,1,1.182-7.451,6.417,6.417,0,0,1,9.076,9.075Z"/><path class="b" d="M980.466,5553.94l-1.588-.456a.591.591,0,0,0-.586.154l-.388.4a.578.578,0,0,1-.628.133,8.492,8.492,0,0,1-2.735-2.411.578.578,0,0,1,.046-.641l.339-.439a.59.59,0,0,0,.073-.6l-.668-1.511a.592.592,0,0,0-.924-.211,2.671,2.671,0,0,0-1.033,1.575c-.112,1.112.365,2.514,2.168,4.2,2.084,1.945,3.753,2.2,4.839,1.939a2.673,2.673,0,0,0,1.42-1.238A.592.592,0,0,0,980.466,5553.94Z"/></g></svg>