<svg xmlns="http://www.w3.org/2000/svg" width="55.101" height="44.091" viewBox="0 0 55.101 44.091"><defs><style>.a,.b,.c{fill:#212121;}.b{stroke:#000;stroke-width:0.25px;}.b,.c{stroke-miterlimit:10;}.c{stroke:#fff;}</style></defs><g transform="translate(-203.082 -2335.527)"><path class="a" d="M224.17,2341.941v12.578a2.1,2.1,0,0,1-2.1,2.1H209.5a2.1,2.1,0,0,1-2.1-2.1v-12.578a2.1,2.1,0,0,1,2.1-2.1h12.578A2.1,2.1,0,0,1,224.17,2341.941Zm-2.1-.7h-4.892v3.494h5.591v-2.8A.7.7,0,0,0,222.074,2341.242Zm-9.783,4.891v9.084h3.494v-9.084Zm4.891,4.193h5.591v-4.193h-5.591Zm5.591,4.193v-2.795h-5.591v3.493h4.892A.7.7,0,0,0,222.773,2354.519Zm-13.277.7h1.4v-9.084h-2.1v8.386A.7.7,0,0,0,209.5,2355.217Zm-.7-13.276v2.8h6.988v-3.494H209.5A.7.7,0,0,0,208.8,2341.941Z"/><path class="b" d="M203.207,2360.807v-25.155h33.541v19.156l-6,6Zm26.963-1.4,5.18-5.181v-17.18H204.6v22.361Z"/><path class="c" d="M257.25,2376.55l-9.5-9.5a14.8,14.8,0,1,0-2.093,2.093l9.5,9.5a1.484,1.484,0,0,0,2.093-2.093Zm-29.387-10.493a11.874,11.874,0,1,1,16.792-.006l-.006.006a11.8,11.8,0,0,1-16.687.1Z"/></g></svg>