<svg xmlns="http://www.w3.org/2000/svg" width="40.784" height="28.991" viewBox="0 0 40.784 28.991"><defs><style>.a{fill:#212121;}</style></defs><g transform="translate(-201.216 -2407.34)"><path class="a" d="M240.035,2407.34H203.181a1.97,1.97,0,0,0-1.965,1.965v25.06a1.971,1.971,0,0,0,1.965,1.966h36.854a1.971,1.971,0,0,0,1.965-1.966V2409.3A1.97,1.97,0,0,0,240.035,2407.34Zm-37.345,5.9h37.836v4.423H202.69Zm.491-4.422h36.854a.5.5,0,0,1,.491.491v2.457H202.69V2409.3A.5.5,0,0,1,203.181,2408.814Zm36.854,26.043H203.181a.5.5,0,0,1-.491-.492v-15.232h37.836v15.232A.5.5,0,0,1,240.035,2434.857Z"/><path class="a" d="M234.384,2424.046a4.164,4.164,0,0,0-2.949,1.219,4.177,4.177,0,1,0,0,5.916,4.177,4.177,0,1,0,2.949-7.135Zm0,6.88a2.684,2.684,0,0,1-1.908-.789,1.474,1.474,0,0,0-2.081,0,2.7,2.7,0,1,1,0-3.828,1.474,1.474,0,0,0,2.081,0,2.7,2.7,0,1,1,1.908,4.617Z"/><path class="a" d="M217.431,2425.521H205.638a.737.737,0,0,0,0,1.474h11.793a.737.737,0,0,0,0-1.474Z"/><path class="a" d="M211.044,2428.96h-5.406a.737.737,0,0,0,0,1.474h5.406a.737.737,0,0,0,0-1.474Z"/></g></svg>