<svg xmlns="http://www.w3.org/2000/svg" width="40.305" height="47.995" viewBox="0 0 40.305 47.995"><defs><style>.a{fill:#212121;stroke:#212121;stroke-miterlimit:10;stroke-width:0.25px;}</style></defs><g transform="translate(-200.302 -2538.564)"><path class="a" d="M240.472,2579.233a11.321,11.321,0,0,0-5.289-7.827,54.593,54.593,0,0,0-8.657-4.181.582.582,0,0,0-.181-.031l-.054-.116v-.517a9.8,9.8,0,0,0,3.438-7,2.574,2.574,0,0,0,.033-5.127v-.769a1.9,1.9,0,0,0,.534-3.31l0-1.869a9.8,9.8,0,0,0-9.787-9.8,9.812,9.812,0,0,0-9.827,9.773l0,1.869a1.884,1.884,0,0,0-.451,2.551,1.825,1.825,0,0,0,.976.763v.766a2.575,2.575,0,0,0,.006,5.127,9.285,9.285,0,0,0,3.435,7.075v.451l-.054.115a.582.582,0,0,0-.181.031,54.665,54.665,0,0,0-8.668,4.16,11.322,11.322,0,0,0-5.308,7.814.561.561,0,0,0,.233.551q8.894,6.168,18.037,6.655a.541.541,0,0,0,.1.02.444.444,0,0,0,.052-.011c7.754.378,14.928-2.336,21.372-6.609A.562.562,0,0,0,240.472,2579.233Zm-19.51-3.764-.5.269-.51-.274c-3.565-3.138-3.992-6.437-3.974-7.942a8.979,8.979,0,0,0,1.695.752,9.082,9.082,0,0,0,5.543.008,8.81,8.81,0,0,0,1.749-.786C224.985,2568.982,224.572,2572.311,220.962,2575.469Zm-6-6.448a11.179,11.179,0,0,0,2.015,4.841l-1.233-.664a.563.563,0,0,0-.535,0l-2.972,1.627Zm11,.014,2.71,5.811-2.968-1.634a.557.557,0,0,0-.534,0l-1.235.662A11.179,11.179,0,0,0,225.968,2569.035Zm5-12.04a1.477,1.477,0,0,1-1.211,1.431l0-2.857A1.471,1.471,0,0,1,230.969,2557Zm-19.164-8.531a8.692,8.692,0,0,1,14.84-6.107,8.554,8.554,0,0,1,2.535,6.128v1.289c-.058-.026-.117-.047-.175-.072a21.434,21.434,0,0,0-17.023-.021c-.059.025-.119.046-.177.072Zm-.316,2.673a.557.557,0,0,0,.053-.029,20.371,20.371,0,0,1,17.9.023l.053.029a.779.779,0,0,1,.323,1.118l0,0a.806.806,0,0,1-1.063.284,19.163,19.163,0,0,0-16.52-.022.8.8,0,0,1-1.043-.248A.783.783,0,0,1,211.489,2551.137ZM210,2556.969a1.467,1.467,0,0,1,1.211-1.423l0,2.858A1.473,1.473,0,0,1,210,2556.969Zm2.326,2.362.007-5.644a2.114,2.114,0,0,0,.387-.137,18.021,18.021,0,0,1,15.544.021,2.057,2.057,0,0,0,.384.136l-.007,5.4a8.522,8.522,0,0,1-5.768,8.112,8.017,8.017,0,0,1-7.318-1.3h0A8.2,8.2,0,0,1,212.322,2559.331Zm-5.994,12.994a52.676,52.676,0,0,1,7.6-3.73L210.5,2575.9a.559.559,0,0,0,.775.728l4.209-2.3,3.833,2.068a2.73,2.73,0,0,0-1.063,2.164l-.008,6.662a33.714,33.714,0,0,1-16.642-6.2A10.218,10.218,0,0,1,206.328,2572.325Zm13.039,12.955.008-6.72a1.613,1.613,0,0,1,.861-1.434l1.318-.7,3.883-2.083,4.2,2.315a.552.552,0,0,0,.269.07.56.56,0,0,0,.508-.8l-3.411-7.317a52.657,52.657,0,0,1,7.592,3.749,10.214,10.214,0,0,1,4.7,6.7C232.617,2583.423,225.956,2585.494,219.367,2585.28Z"/><path class="a" d="M221.631,2560.219a.56.56,0,1,0-.79-.793.513.513,0,0,1-.723,0,.56.56,0,0,0-.793.791A1.634,1.634,0,0,0,221.631,2560.219Z"/><path class="a" d="M215.75,2556.7a.829.829,0,0,1,1.44,0,.56.56,0,1,0,.973-.554,1.928,1.928,0,0,0-1.691-.984h0a1.928,1.928,0,0,0-1.693.98.559.559,0,1,0,.971.556Z"/><path class="a" d="M223.012,2556.918a.561.561,0,0,0,.764-.208.856.856,0,0,1,1.439,0,.56.56,0,1,0,.973-.554,1.948,1.948,0,0,0-3.384,0A.561.561,0,0,0,223.012,2556.918Z"/><path class="a" d="M223.847,2561.361a6.924,6.924,0,0,1-6.74-.008.567.567,0,0,0-.548.036.59.59,0,0,0-.269.5,4.187,4.187,0,1,0,8.373-.025.561.561,0,0,0-.816-.5Zm-3.375,3.589a3.071,3.071,0,0,1-2.931-2.174,7.876,7.876,0,0,0,5.869.008A3.075,3.075,0,0,1,220.472,2564.95Z"/></g></svg>