<svg xmlns="http://www.w3.org/2000/svg" width="26.459" height="26.459" viewBox="0 0 26.459 26.459"><defs><style>.a{fill:#bd081c;}.b{fill:#fff;}</style></defs><g transform="translate(-1282.455 -5539)"><path class="a" d="M1284.394,5539h22.58a1.939,1.939,0,0,1,1.939,1.939v22.58a1.939,1.939,0,0,1-1.939,1.939h-22.58a1.939,1.939,0,0,1-1.939-1.939v-22.58A1.939,1.939,0,0,1,1284.394,5539Z"/><path class="b" d="M1301.81,5549.8c0,3.2-1.777,5.59-4.4,5.59a2.34,2.34,0,0,1-1.993-1.017s-.474,1.877-.574,2.241a8.661,8.661,0,0,1-1.471,2.667.108.108,0,0,1-.194-.044,9.135,9.135,0,0,1,.025-3.1l1.048-4.442a3.13,3.13,0,0,1-.26-1.289c0-1.21.7-2.112,1.573-2.112a1.09,1.09,0,0,1,1.1,1.225,17.484,17.484,0,0,1-.719,2.893,1.261,1.261,0,0,0,1.286,1.569c1.547,0,2.586-1.983,2.586-4.334a3.053,3.053,0,0,0-3.392-3.126,3.862,3.862,0,0,0-4.014,3.906,2.349,2.349,0,0,0,.539,1.6.4.4,0,0,1,.116.454c-.04.151-.129.511-.166.654a.28.28,0,0,1-.408.2,3.137,3.137,0,0,1-1.671-3.114c0-2.317,1.954-5.094,5.828-5.094A4.872,4.872,0,0,1,1301.81,5549.8Z"/></g></svg>