<svg xmlns="http://www.w3.org/2000/svg" width="21.004" height="21.004" viewBox="0 0 21.004 21.004"><defs><style>.a{fill:#878787;stroke:#878787;stroke-miterlimit:10;stroke-width:0.5px;}</style></defs><path class="a" d="M179.846,4117.69a2.723,2.723,0,0,1-.176.351,1,1,0,0,1-.9.423c-1.08,0-2.161,0-3.241,0-1.58,0-3.161,0-4.741-.006-.177,0-.224.046-.223.223.006,2.647,0,5.295.006,7.942a1.039,1.039,0,0,1-.423.939,2.8,2.8,0,0,1-.352.176h-.4a1.071,1.071,0,0,1-.737-.719,1.652,1.652,0,0,1-.035-.437q0-3.933,0-7.865c0-.2-.04-.259-.25-.258-2.642.007-5.284,0-7.926,0a1.031,1.031,0,0,1-.873-.354.927.927,0,0,1-.142-1.013.88.88,0,0,1,.824-.57c1.154-.013,2.308-.011,3.462-.012,1.561,0,3.122,0,4.683.006.176,0,.223-.046.223-.223-.006-2.649,0-5.3-.006-7.946a1.043,1.043,0,0,1,.347-.876.923.923,0,0,1,1.011-.15.889.889,0,0,1,.579.818c.017.54.011,1.081.011,1.621,0,2.175,0,4.35,0,6.524,0,.191.06.23.237.229,2.6,0,5.191.009,7.786-.009a1.138,1.138,0,0,1,1.255.78Z" transform="translate(-159.092 -4106.984)"/></svg>